<svg width="31" height="41" viewBox="0 0 31 41" fill="none" xmlns="http://www.w3.org/2000/svg">
<path d="M15.2616 0.900879C8.73254 0.900879 3.43848 6.19413 3.43848 12.724C3.43848 19.2538 8.73202 24.5471 15.2616 24.5471C21.7916 24.5471 27.0847 19.2538 27.0847 12.724C27.0847 6.19413 21.7916 0.900879 15.2616 0.900879ZM15.2616 4.43612C17.422 4.43612 19.1726 6.18738 19.1726 8.34686C19.1726 10.5068 17.422 12.2576 15.2616 12.2576C13.1022 12.2576 11.3515 10.5068 11.3515 8.34686C11.3515 6.18738 13.1022 4.43612 15.2616 4.43612ZM15.259 21.4559C13.1043 21.4559 11.1308 20.6711 9.60865 19.3722C9.23785 19.0559 9.02388 18.5921 9.02388 18.1055C9.02388 15.9154 10.7964 14.1626 12.9869 14.1626H17.5373C19.7283 14.1626 21.4941 15.9154 21.4941 18.1055C21.4941 18.5927 21.2811 19.0554 20.9098 19.3717C19.3882 20.6711 17.4142 21.4559 15.259 21.4559Z" fill="#9B9B9B"/>
<path d="M8.21839 32.913C8.31313 33.2298 8.38862 33.5288 8.44487 33.8101C8.50112 34.0913 8.52925 34.3563 8.52925 34.605C8.52925 35.0431 8.46115 35.3999 8.32497 35.6752C8.19175 35.9476 8.00672 36.1607 7.76988 36.3147C7.49159 36.4982 7.14077 36.624 6.71741 36.6921C6.29406 36.7573 5.81298 36.7898 5.27417 36.7898H4.26167C3.53339 36.7898 2.94721 36.7173 2.50313 36.5722C2.06201 36.4242 1.7408 36.1992 1.53948 35.8972C1.33817 35.5953 1.23751 35.2119 1.23751 34.7471C1.23751 34.4777 1.26564 34.1994 1.32189 33.9122C1.3811 33.6221 1.46399 33.3438 1.57057 33.0774L2.12122 33.0818C2.03537 33.3305 1.96876 33.5629 1.92139 33.779C1.87698 33.9951 1.85478 34.1949 1.85478 34.3785C1.85478 34.6953 1.93767 34.9499 2.10346 35.1423C2.27221 35.3347 2.5431 35.4739 2.91612 35.5597C3.28915 35.6426 3.78503 35.6841 4.40378 35.6841H5.3319C5.69604 35.6841 6.03354 35.6708 6.34439 35.6441C6.65524 35.6175 6.92761 35.5716 7.16149 35.5064C7.39537 35.4413 7.57596 35.3569 7.70326 35.2533C7.83353 35.1467 7.89866 35.0135 7.89866 34.8537C7.89866 34.7175 7.85573 34.5221 7.76988 34.2675C7.68698 34.0099 7.5656 33.6754 7.40573 33.2639L8.21839 32.913ZM5.55838 37.9489L4.87894 38.6372L4.19506 37.9444L4.87894 37.2694L5.55838 37.9489ZM11.6689 36.7898C11.2307 36.7898 10.8769 36.7321 10.6075 36.6166C10.3381 36.4982 10.1412 36.3117 10.0169 36.0571C9.89256 35.8025 9.83039 35.468 9.83039 35.0535V30.4662L10.6208 30.2486V34.756C10.6208 34.9869 10.6505 35.1704 10.7097 35.3066C10.7689 35.4428 10.8814 35.5405 11.0472 35.5997C11.2129 35.656 11.4572 35.6841 11.7799 35.6841L11.6689 36.7898ZM11.6689 36.7898C11.6185 36.7898 11.5815 36.775 11.5578 36.7454C11.5342 36.7129 11.5238 36.6714 11.5268 36.6211L11.6111 35.8528C11.6259 35.7403 11.6822 35.6841 11.7799 35.6841C11.8302 35.6841 11.8672 35.7004 11.8909 35.7329C11.9175 35.7625 11.9279 35.8025 11.922 35.8528L11.8376 36.6211C11.8258 36.7336 11.7695 36.7898 11.6689 36.7898ZM17.9037 34.2808V34.9602C17.9037 35.1527 17.9348 35.3007 17.997 35.4043C18.0591 35.5079 18.1761 35.5805 18.3478 35.6219C18.5195 35.6634 18.7711 35.6841 19.1027 35.6841L18.9961 36.7898C18.552 36.7898 18.2101 36.7262 17.9703 36.5989C17.7305 36.4716 17.581 36.2525 17.5218 35.9416L17.7083 35.9372C17.6461 36.2303 17.5129 36.4464 17.3086 36.5856C17.1073 36.7217 16.8468 36.7898 16.5271 36.7898C16.1659 36.7898 15.8906 36.7158 15.7011 36.5678C15.5116 36.4168 15.3843 36.1977 15.3192 35.9106L15.5767 35.9061C15.5146 36.1874 15.3769 36.405 15.1637 36.5589C14.9536 36.7129 14.6679 36.7898 14.3067 36.7898C13.9218 36.7898 13.6287 36.7158 13.4274 36.5678C13.2291 36.4198 13.1062 36.2125 13.0588 35.9461L13.2453 35.955C13.1684 36.2303 13.0174 36.439 12.7924 36.5811C12.5703 36.7203 12.1973 36.7898 11.6733 36.7898L11.7799 35.6841C12.0907 35.6841 12.3335 35.6619 12.5082 35.6175C12.6828 35.5731 12.8042 35.4976 12.8723 35.391C12.9434 35.2844 12.9789 35.1408 12.9789 34.9602V34.2808H13.6095V34.9602C13.6095 35.2267 13.6687 35.4147 13.7871 35.5242C13.9085 35.6308 14.1024 35.6841 14.3689 35.6841C14.6383 35.6841 14.8307 35.6308 14.9461 35.5242C15.0646 35.4147 15.1238 35.2267 15.1238 34.9602V34.2808H15.7588V34.9602C15.7588 35.2267 15.8106 35.4147 15.9142 35.5242C16.0208 35.6308 16.2236 35.6841 16.5226 35.6841C16.7979 35.6841 16.9904 35.6308 17.0999 35.5242C17.2124 35.4147 17.2687 35.2267 17.2687 34.9602V34.2808H17.9037ZM18.9961 36.7898C18.9458 36.7898 18.9073 36.775 18.8807 36.7454C18.857 36.7129 18.8481 36.6714 18.854 36.6211L18.9384 35.8528C18.9502 35.7403 19.005 35.6841 19.1027 35.6841C19.153 35.6841 19.19 35.7004 19.2137 35.7329C19.2404 35.7625 19.2522 35.8025 19.2492 35.8528L19.1649 36.6211C19.153 36.7336 19.0968 36.7898 18.9961 36.7898ZM11.7799 35.6841C11.8302 35.6841 11.8687 35.7004 11.8953 35.7329C11.922 35.7625 11.9309 35.8025 11.922 35.8528L11.8376 36.6211C11.8258 36.7336 11.771 36.7898 11.6733 36.7898C11.623 36.7898 11.586 36.775 11.5623 36.7454C11.5356 36.7129 11.5238 36.6714 11.5268 36.6211L11.6111 35.8528C11.623 35.7403 11.6792 35.6841 11.7799 35.6841ZM25.3953 36.7898C24.8061 36.7898 24.3709 36.6551 24.0897 36.3857C23.8114 36.1163 23.6722 35.6752 23.6722 35.0624V34.5561L24.1385 34.5339V34.6361C24.1385 34.8966 24.1741 35.1038 24.2451 35.2578C24.3162 35.4117 24.4464 35.5213 24.6359 35.5864C24.8283 35.6515 25.1051 35.6841 25.4663 35.6841H25.7106L25.5995 36.7898H25.3953ZM25.604 36.7898C25.5537 36.7898 25.5152 36.775 25.4885 36.7454C25.4619 36.7129 25.4515 36.6714 25.4574 36.6211L25.5463 35.8528C25.5581 35.7403 25.6129 35.6841 25.7106 35.6841C25.7609 35.6841 25.7979 35.7004 25.8216 35.7329C25.8482 35.7625 25.8586 35.8025 25.8527 35.8528L25.7683 36.6211C25.7564 36.7336 25.7017 36.7898 25.604 36.7898ZM19.0006 36.7898L19.1071 35.6841C19.495 35.6841 19.8517 35.6693 20.1774 35.6397C20.503 35.6101 20.8124 35.5627 21.1055 35.4976C21.4015 35.4295 21.7005 35.3407 22.0025 35.2311C22.2571 35.1364 22.4599 35.0565 22.6109 34.9913C22.7619 34.9262 22.8892 34.8714 22.9928 34.827C23.0994 34.7826 23.2119 34.7441 23.3303 34.7116L23.3081 34.8936C23.0446 34.8315 22.8063 34.756 22.5931 34.6671C22.38 34.5783 22.1698 34.4895 21.9626 34.4007C21.7583 34.3119 21.5377 34.2379 21.3009 34.1787C21.064 34.1195 20.7887 34.0898 20.4749 34.0898C20.321 34.0898 20.1729 34.1032 20.0308 34.1298C19.8917 34.1565 19.7644 34.1905 19.6489 34.232L19.6445 33.5658C19.7984 33.4504 19.9716 33.3453 20.164 33.2505C20.3565 33.1558 20.5608 33.1084 20.7769 33.1084C21.067 33.1084 21.3334 33.1425 21.5762 33.2106C21.819 33.2787 22.0514 33.363 22.2734 33.4637C22.4954 33.5644 22.7175 33.665 22.9395 33.7657C23.1616 33.8634 23.3925 33.9463 23.6323 34.0144C23.8721 34.0824 24.1341 34.1165 24.4183 34.1165H24.9601L24.818 35.169H24.3739C24.1815 35.169 23.9935 35.1897 23.8099 35.2311C23.6293 35.2726 23.4221 35.3481 23.1882 35.4576C22.9543 35.5671 22.6657 35.7196 22.3223 35.915C21.9552 36.1311 21.6088 36.3028 21.2831 36.4301C20.9575 36.5574 20.6126 36.6492 20.2484 36.7055C19.8872 36.7617 19.4713 36.7898 19.0006 36.7898ZM19.1071 35.6841C19.1575 35.6841 19.196 35.7004 19.2226 35.7329C19.2492 35.7625 19.2581 35.8025 19.2492 35.8528L19.1649 36.6211C19.153 36.7336 19.0983 36.7898 19.0006 36.7898C18.9502 36.7898 18.9132 36.775 18.8895 36.7454C18.8629 36.7129 18.8511 36.6714 18.854 36.6211L18.9384 35.8528C18.9502 35.7403 19.0065 35.6841 19.1071 35.6841ZM27.6601 30.2486V34.525C27.6601 34.9721 27.6038 35.3643 27.4913 35.7018C27.3788 36.0393 27.2027 36.2925 26.9629 36.4612C26.8089 36.5767 26.6209 36.661 26.3989 36.7143C26.1768 36.7647 25.9134 36.7898 25.6084 36.7898L25.715 35.6841C25.9933 35.6841 26.2168 35.6604 26.3856 35.613C26.5543 35.5657 26.6757 35.4783 26.7497 35.351C26.8267 35.2237 26.8652 35.0402 26.8652 34.8004V30.4662L27.6601 30.2486ZM25.6084 36.7898C25.5581 36.7898 25.5211 36.775 25.4974 36.7454C25.4708 36.7129 25.4589 36.6714 25.4619 36.6211L25.5463 35.8528C25.564 35.7403 25.6203 35.6841 25.715 35.6841C25.7653 35.6841 25.8038 35.7004 25.8305 35.7329C25.8571 35.7625 25.866 35.8025 25.8571 35.8528L25.7727 36.6211C25.7638 36.7336 25.7091 36.7898 25.6084 36.7898ZM29.1299 30.4662L29.9204 30.2486V36.2347L29.3609 36.7898H29.1299V30.4662Z" fill="#9B9B9B"/>
</svg>
