<svg width="33" height="46" viewBox="0 0 33 46" fill="none" xmlns="http://www.w3.org/2000/svg">
<path d="M17.2963 5.87919L29.3893 12.906C29.8598 13.1795 29.8598 13.8579 29.3893 14.1315L17.2963 21.1583C16.5533 21.59 15.6361 21.59 14.8941 21.1583L2.80112 14.1315C2.33062 13.8579 2.33062 13.1795 2.80112 12.906L14.8941 5.87919C15.6361 5.44847 16.5533 5.44847 17.2963 5.87919Z" fill="#9B9B9B"/>
<path d="M17.2963 5.87919L29.3893 12.906C29.8598 13.1795 29.8598 13.8579 29.3893 14.1315L17.2963 21.1583C16.5533 21.59 15.6361 21.59 14.8941 21.1583L2.80112 14.1315C2.33062 13.8579 2.33062 13.1795 2.80112 12.906L14.8941 5.87919C15.6361 5.44847 16.5533 5.44847 17.2963 5.87919Z" fill="#9B9B9B"/>
<path d="M29.3851 14.1362L25.2769 16.5235L17.2991 21.159C16.5531 21.5867 15.6379 21.5867 14.8919 21.159L6.91414 16.5235L2.79596 14.1362C2.32843 13.8576 2.32843 13.1812 2.79596 12.9027L14.8919 5.87988C15.6379 5.45215 16.5531 5.45215 17.2991 5.87988L29.3851 12.9027C29.8626 13.1812 29.8626 13.8576 29.3851 14.1362Z" fill="#9B9B9B"/>
<path d="M18.0501 22.4502C17.4502 22.7934 16.7778 22.9735 16.0964 22.9735C15.415 22.9735 14.7426 22.7934 14.1507 22.4552L6.91504 18.2505V21.9857C6.91504 22.8213 7.35272 23.5872 8.07887 24.005L13.1222 26.9196C14.9624 27.974 17.2304 27.974 19.0607 26.9196L24.1139 24.005C24.8301 23.5872 25.2778 22.8213 25.2778 21.9857V18.2505L18.0501 22.4502Z" fill="#9B9B9B"/>
<path d="M29.6041 23.3053V15.7354L27.8125 16.7758V23.3043C27.3918 23.5907 27.1152 24.0732 27.1152 24.6203C27.1152 25.4996 27.8285 26.2129 28.7078 26.2129C29.5871 26.2129 30.3004 25.5006 30.3004 24.6213C30.3004 24.0742 30.0238 23.5927 29.6041 23.3053Z" fill="#9B9B9B"/>
<path d="M3.35326 41.3789C3.06905 41.3789 2.82629 41.3241 2.62498 41.2146C2.42662 41.1021 2.27564 40.9481 2.17202 40.7528C2.0684 40.5574 2.01659 40.3324 2.01659 40.0778C2.01659 39.835 2.07136 39.613 2.1809 39.4116C2.2934 39.2103 2.45623 39.0268 2.66938 38.861C2.8855 38.6952 3.15047 38.5442 3.46428 38.408C3.78106 38.2689 4.14372 38.1416 4.55227 38.0261V38.9143C4.25326 38.9942 3.98385 39.0741 3.74405 39.1541C3.50721 39.234 3.30441 39.3154 3.13567 39.3983C2.96692 39.4783 2.83665 39.5656 2.74488 39.6603C2.65606 39.7521 2.61165 39.8513 2.61165 39.9579C2.61165 40.0733 2.67827 40.1695 2.81149 40.2465C2.94471 40.3205 3.12974 40.3575 3.36658 40.3575C3.59158 40.3575 3.79882 40.3264 3.98829 40.2643C4.18072 40.2021 4.33615 40.1222 4.45457 40.0245L4.6322 40.6462C4.49306 40.8593 4.31395 41.0355 4.09487 41.1746C3.87875 41.3108 3.63155 41.3789 3.35326 41.3789ZM6.15983 42.0628C5.50259 42.0628 5.03039 41.9296 4.74322 41.6631C4.45605 41.3937 4.31247 40.9481 4.31247 40.3264V37.733L5.10292 37.5776V40.0289C5.10292 40.2598 5.13253 40.4434 5.19174 40.5796C5.25095 40.7157 5.36345 40.8134 5.52924 40.8727C5.69799 40.9289 5.94667 40.957 6.27528 40.957L6.15983 42.0628ZM6.16427 42.0628C6.11394 42.0628 6.07545 42.048 6.04881 42.0184C6.02512 41.9858 6.01624 41.9444 6.02216 41.894L6.10654 41.1258C6.12134 41.0133 6.17759 40.957 6.27528 40.957C6.32561 40.957 6.36262 40.9733 6.3863 41.0059C6.41295 41.0355 6.42331 41.0755 6.41739 41.1258L6.33301 41.894C6.32117 42.0065 6.26492 42.0628 6.16427 42.0628ZM3.90836 36.2587L3.29553 36.876L2.68271 36.2587L3.29553 35.6459L3.90836 36.2587ZM5.21838 36.2587L4.60112 36.876L3.99273 36.2587L4.60112 35.6459L5.21838 36.2587ZM7.7807 43.2307L7.16788 43.8435L6.55505 43.2307L7.16788 42.6134L7.7807 43.2307ZM9.09073 43.2307L8.47346 43.8435L7.86508 43.2307L8.47346 42.6134L9.09073 43.2307ZM8.14041 39.0075V40.0644C8.14041 40.3072 8.18481 40.4937 8.27363 40.624C8.36244 40.7513 8.49715 40.8386 8.67774 40.886C8.85833 40.9333 9.08333 40.957 9.35273 40.957L9.24616 42.0628C8.97675 42.0628 8.72807 42.0273 8.50011 41.9562C8.27215 41.8822 8.08268 41.7608 7.93169 41.5921C7.78366 41.4203 7.68893 41.1835 7.64748 40.8815L7.86064 40.8993C7.81919 41.2042 7.73037 41.4411 7.59419 41.6098C7.46097 41.7786 7.27594 41.897 7.0391 41.9651C6.80522 42.0302 6.51657 42.0628 6.17315 42.0628L6.27973 40.957C6.55505 40.957 6.78153 40.9333 6.95916 40.886C7.13975 40.8386 7.27298 40.7513 7.35883 40.624C7.44765 40.4937 7.49205 40.3072 7.49205 40.0644V39.0075H8.14041ZM9.24616 42.0628C9.19583 42.0628 9.15734 42.048 9.1307 42.0184C9.10701 41.9858 9.09665 41.9444 9.09961 41.894L9.18843 41.1258C9.20323 41.0133 9.258 40.957 9.35273 40.957C9.40306 40.957 9.44155 40.9733 9.46819 41.0059C9.49484 41.0355 9.5052 41.0755 9.49928 41.1258L9.41046 41.894C9.40158 42.0065 9.34681 42.0628 9.24616 42.0628ZM6.17315 42.0628C6.12282 42.0628 6.08581 42.048 6.06213 42.0184C6.03548 41.9858 6.02364 41.9444 6.0266 41.894L6.11098 41.1258C6.12874 41.0133 6.18499 40.957 6.27973 40.957C6.33005 40.957 6.36854 40.9733 6.39519 41.0059C6.42183 41.0355 6.43071 41.0755 6.42183 41.1258L6.33746 41.894C6.32857 42.0065 6.2738 42.0628 6.17315 42.0628ZM15.4765 39.5537V40.2332C15.4765 40.4256 15.5076 40.5736 15.5698 40.6773C15.632 40.7809 15.7489 40.8534 15.9206 40.8949C16.0923 40.9363 16.344 40.957 16.6756 40.957L16.569 42.0628C16.1249 42.0628 15.783 41.9991 15.5432 41.8718C15.3034 41.7445 15.1539 41.5254 15.0946 41.2146L15.2812 41.2102C15.219 41.5032 15.0858 41.7194 14.8815 41.8585C14.6802 41.9947 14.4196 42.0628 14.0999 42.0628C13.7387 42.0628 13.4634 41.9888 13.2739 41.8407C13.0845 41.6898 12.9572 41.4707 12.892 41.1835L13.1496 41.1791C13.0874 41.4603 12.9498 41.6779 12.7366 41.8319C12.5264 41.9858 12.2407 42.0628 11.8795 42.0628C11.4947 42.0628 11.2016 41.9888 11.0003 41.8407C10.8019 41.6927 10.679 41.4855 10.6317 41.219L10.8182 41.2279C10.7412 41.5032 10.5902 41.712 10.3652 41.8541C10.1432 41.9932 9.77017 42.0628 9.24616 42.0628L9.35273 40.957C9.66359 40.957 9.90635 40.9348 10.081 40.8904C10.2557 40.846 10.3771 40.7705 10.4452 40.6639C10.5162 40.5574 10.5517 40.4138 10.5517 40.2332V39.5537H11.1823V40.2332C11.1823 40.4996 11.2415 40.6876 11.36 40.7972C11.4813 40.9037 11.6753 40.957 11.9417 40.957C12.2111 40.957 12.4035 40.9037 12.519 40.7972C12.6374 40.6876 12.6966 40.4996 12.6966 40.2332V39.5537H13.3317V40.2332C13.3317 40.4996 13.3835 40.6876 13.4871 40.7972C13.5937 40.9037 13.7965 40.957 14.0955 40.957C14.3708 40.957 14.5632 40.9037 14.6728 40.7972C14.7853 40.6876 14.8415 40.4996 14.8415 40.2332V39.5537H15.4765ZM16.569 42.0628C16.5186 42.0628 16.4802 42.048 16.4535 42.0184C16.4298 41.9858 16.4209 41.9444 16.4269 41.894L16.5112 41.1258C16.5231 41.0133 16.5779 40.957 16.6756 40.957C16.7259 40.957 16.7629 40.9733 16.7866 41.0059C16.8132 41.0355 16.8251 41.0755 16.8221 41.1258L16.7377 41.894C16.7259 42.0065 16.6696 42.0628 16.569 42.0628ZM9.35273 40.957C9.40306 40.957 9.44155 40.9733 9.46819 41.0059C9.49484 41.0355 9.50372 41.0755 9.49484 41.1258L9.41046 41.894C9.39862 42.0065 9.34385 42.0628 9.24616 42.0628C9.19583 42.0628 9.15882 42.048 9.13514 42.0184C9.10849 41.9858 9.09665 41.9444 9.09961 41.894L9.18398 41.1258C9.19583 41.0133 9.25208 40.957 9.35273 40.957ZM18.5407 39.0075V40.0644C18.5407 40.3072 18.5851 40.4937 18.6739 40.624C18.7627 40.7513 18.8974 40.8386 19.078 40.886C19.2586 40.9333 19.4836 40.957 19.753 40.957L19.6464 42.0628C19.377 42.0628 19.1283 42.0273 18.9004 41.9562C18.6724 41.8822 18.4829 41.7608 18.332 41.5921C18.1839 41.4203 18.0892 41.1835 18.0477 40.8815L18.2609 40.8993C18.2195 41.2042 18.1306 41.4411 17.9945 41.6098C17.8612 41.7786 17.6762 41.897 17.4394 41.9651C17.2055 42.0302 16.9168 42.0628 16.5734 42.0628L16.68 40.957C16.9553 40.957 17.1818 40.9333 17.3594 40.886C17.54 40.8386 17.6732 40.7513 17.7591 40.624C17.8479 40.4937 17.8923 40.3072 17.8923 40.0644V39.0075H18.5407ZM19.6464 42.0628C19.5961 42.0628 19.5576 42.048 19.531 42.0184C19.5073 41.9858 19.4969 41.9444 19.4999 41.894L19.5887 41.1258C19.6035 41.0133 19.6583 40.957 19.753 40.957C19.8033 40.957 19.8418 40.9733 19.8685 41.0059C19.8951 41.0355 19.9055 41.0755 19.8995 41.1258L19.8107 41.894C19.8019 42.0065 19.7471 42.0628 19.6464 42.0628ZM16.5734 42.0628C16.5231 42.0628 16.4861 42.048 16.4624 42.0184C16.4358 41.9858 16.4239 41.9444 16.4269 41.894L16.5112 41.1258C16.529 41.0133 16.5853 40.957 16.68 40.957C16.7303 40.957 16.7688 40.9733 16.7955 41.0059C16.8221 41.0355 16.831 41.0755 16.8221 41.1258L16.7377 41.894C16.7288 42.0065 16.6741 42.0628 16.5734 42.0628ZM21.254 43.2307L20.6412 43.8435L20.0283 43.2307L20.6412 42.6134L21.254 43.2307ZM22.564 43.2307L21.9467 43.8435L21.3384 43.2307L21.9467 42.6134L22.564 43.2307ZM21.4449 38.4036C21.5397 38.7322 21.6107 39.0416 21.6581 39.3317C21.7055 39.6189 21.7291 39.8927 21.7291 40.1533C21.7291 40.4878 21.6833 40.7853 21.5915 41.0458C21.4997 41.3034 21.362 41.5092 21.1785 41.6631C21.0157 41.8052 20.8084 41.9074 20.5568 41.9695C20.3081 42.0317 20.0046 42.0628 19.6464 42.0628L19.753 40.957C20.0313 40.957 20.2696 40.9407 20.468 40.9082C20.6693 40.8727 20.8232 40.812 20.9298 40.7261C21.0393 40.6403 21.0941 40.5218 21.0941 40.3708C21.0941 40.2583 21.0719 40.1133 21.0275 39.9357C20.9831 39.7551 20.9254 39.5626 20.8543 39.3584C20.7833 39.1511 20.7092 38.9483 20.6323 38.75L21.4449 38.4036ZM19.753 40.957C19.8033 40.957 19.8418 40.9733 19.8685 41.0059C19.8951 41.0355 19.904 41.0755 19.8951 41.1258L19.8107 41.894C19.7989 42.0065 19.7441 42.0628 19.6464 42.0628C19.5961 42.0628 19.5591 42.048 19.5354 42.0184C19.5088 41.9858 19.4969 41.9444 19.4999 41.894L19.5843 41.1258C19.5961 41.0133 19.6523 40.957 19.753 40.957ZM19.9306 38.0927L20.0594 37.5998L20.6545 37.471L20.6412 37.6043C20.505 37.5865 20.391 37.5199 20.2992 37.4044C20.2074 37.286 20.1616 37.1409 20.1616 36.9692C20.1616 36.7265 20.2459 36.5251 20.4147 36.3653C20.5834 36.2054 20.7995 36.1255 21.063 36.1255C21.1548 36.1255 21.2525 36.1506 21.3561 36.201C21.4627 36.2513 21.5574 36.3283 21.6403 36.4319L21.6359 36.7872C21.5411 36.7487 21.4449 36.7191 21.3472 36.6983C21.2495 36.6747 21.1563 36.6628 21.0675 36.6628C20.9046 36.6628 20.767 36.6969 20.6545 36.7649C20.542 36.8301 20.4857 36.9115 20.4857 37.0092C20.4857 37.1039 20.5301 37.1735 20.619 37.2179C20.7107 37.2623 20.838 37.2845 21.0009 37.2845C21.137 37.2845 21.2865 37.2712 21.4494 37.2446C21.6122 37.2149 21.7898 37.1779 21.9823 37.1335L21.8624 37.6309L19.9306 38.0927ZM24.7666 39.2251L24.9132 39.8335C24.9842 40.1296 25.0656 40.359 25.1574 40.5218C25.2521 40.6847 25.3824 40.7986 25.5482 40.8638C25.7169 40.9259 25.9508 40.957 26.2498 40.957L26.1433 42.0628C25.785 42.0628 25.4964 41.9947 25.2773 41.8585C25.0582 41.7223 24.885 41.5254 24.7577 41.2679L24.8688 40.8149C24.8954 40.8416 24.9235 40.9082 24.9531 41.0148C24.9827 41.1184 24.9975 41.2235 24.9975 41.3301C24.9739 41.8689 24.8658 42.3366 24.6734 42.7333C24.4809 43.13 24.2323 43.4365 23.9273 43.6526C23.6224 43.8687 23.2908 43.9767 22.9326 43.9767C22.8349 43.9767 22.7239 43.956 22.5995 43.9146C22.4781 43.8731 22.3538 43.8198 22.2265 43.7547C22.0962 43.6896 21.9749 43.62 21.8624 43.546V42.8488C21.9808 42.8784 22.1007 42.8991 22.2221 42.911C22.3405 42.9258 22.4752 42.9332 22.6262 42.9332C23.0318 42.9332 23.3678 42.8488 23.6342 42.68C23.9007 42.5143 24.099 42.307 24.2293 42.0583C24.3596 41.8097 24.4247 41.5625 24.4247 41.3167C24.4247 41.2338 24.4188 41.1569 24.4069 41.0858C24.398 41.0118 24.3788 40.9171 24.3492 40.8016C24.3196 40.6832 24.2767 40.5233 24.2204 40.322C24.1642 40.1207 24.0916 39.8513 24.0028 39.5138L24.7666 39.2251ZM26.1433 42.0628C26.0929 42.0628 26.0544 42.048 26.0278 42.0184C26.0041 41.9858 25.9952 41.9444 26.0012 41.894L26.0855 41.1258C26.1003 41.0133 26.1551 40.957 26.2498 40.957C26.3002 40.957 26.3387 40.9733 26.3653 41.0059C26.3919 41.0355 26.4023 41.0755 26.3964 41.1258L26.312 41.894C26.3002 42.0065 26.2439 42.0628 26.1433 42.0628ZM28.1993 35.5215V39.798C28.1993 40.245 28.1431 40.6373 28.0306 40.9748C27.9181 41.3123 27.7419 41.5654 27.5021 41.7342C27.3482 41.8496 27.1602 41.934 26.9382 41.9873C26.7161 42.0376 26.4526 42.0628 26.1477 42.0628L26.2543 40.957C26.5326 40.957 26.7561 40.9333 26.9248 40.886C27.0936 40.8386 27.215 40.7513 27.289 40.624C27.366 40.4967 27.4044 40.3131 27.4044 40.0733V35.7391L28.1993 35.5215ZM26.1477 42.0628C26.0974 42.0628 26.0604 42.048 26.0367 42.0184C26.01 41.9858 25.9982 41.9444 26.0012 41.894L26.0855 41.1258C26.1033 41.0133 26.1595 40.957 26.2543 40.957C26.3046 40.957 26.3431 40.9733 26.3697 41.0059C26.3964 41.0355 26.4053 41.0755 26.3964 41.1258L26.312 41.894C26.3031 42.0065 26.2484 42.0628 26.1477 42.0628ZM29.6692 35.7391L30.4597 35.5215V41.5077L29.9001 42.0628H29.6692V35.7391Z" fill="#9B9B9B"/>
</svg>
