<svg width="44" height="42" viewBox="0 0 44 42" fill="none" xmlns="http://www.w3.org/2000/svg">
<g clip-path="url(#clip0_318_24867)">
<path d="M30.2579 6.86572H16.5611C15.1914 6.86572 14.0957 7.96147 14.0957 9.33115V21.1104C14.0957 22.4801 15.1914 23.5758 16.5611 23.5758H30.2579C31.6276 23.5758 32.7234 22.4801 32.7234 21.1104V9.33115C32.7234 7.96147 31.6276 6.86572 30.2579 6.86572ZM27.3268 13.5224C27.3268 13.9881 26.9707 14.3442 26.505 14.3442H20.3141C19.8484 14.3442 19.4922 13.9881 19.4922 13.5224V11.4405C19.4922 10.9748 19.8484 10.6186 20.3141 10.6186C20.7797 10.6186 21.1359 10.9748 21.1359 11.4405V12.7006H25.6832V11.4405C25.6832 10.9748 26.0393 10.6186 26.505 10.6186C26.9707 10.6186 27.3268 10.9748 27.3268 11.4405V13.5224Z" fill="#409CFF"/>
<path d="M30.2598 3.85254H16.563C16.0973 3.85254 15.7412 4.20866 15.7412 4.67435C15.7412 5.14004 16.0973 5.49616 16.563 5.49616H30.2598C30.7255 5.49616 31.0816 5.14004 31.0816 4.67435C31.0816 4.20866 30.7255 3.85254 30.2598 3.85254Z" fill="#409CFF"/>
<path d="M28.8896 0.838867H17.9322C17.4665 0.838867 17.1104 1.19498 17.1104 1.66068C17.1104 2.12637 17.4665 2.48248 17.9322 2.48248H28.8896C29.3553 2.48248 29.7114 2.12637 29.7114 1.66068C29.7114 1.19498 29.3553 0.838867 28.8896 0.838867Z" fill="#409CFF"/>
</g>
<path d="M4.27987 34.1293C4.52559 34.1293 4.73579 34.1974 4.91046 34.3336C5.08809 34.4697 5.2376 34.6444 5.35898 34.8576C5.48036 35.0707 5.58102 35.2928 5.66095 35.5237C5.73792 35.7487 5.81638 35.9367 5.89631 36.0877C5.9792 36.2357 6.09614 36.3467 6.24713 36.4207C6.39812 36.4947 6.61571 36.5317 6.89992 36.5317L6.79334 37.6375C6.44696 37.6375 6.16424 37.5827 5.94516 37.4732C5.72904 37.3636 5.56325 37.2171 5.44779 37.0335C5.33529 36.847 5.2598 36.6413 5.22131 36.4163L5.43891 36.2875C5.44779 36.5658 5.4019 36.8071 5.30125 37.0113C5.20059 37.2127 5.05701 37.3681 4.87049 37.4776C4.68398 37.5842 4.46638 37.6375 4.2177 37.6375C3.9631 37.6375 3.72182 37.596 3.49386 37.5131C3.26886 37.4303 3.06902 37.3207 2.89435 37.1845C2.72264 37.0483 2.58794 36.8988 2.49024 36.736L2.9432 35.9322C3.04682 36.0595 3.17264 36.1735 3.32067 36.2742C3.46869 36.3719 3.63152 36.4518 3.80915 36.514C3.98678 36.5732 4.16885 36.6028 4.35536 36.6028C4.48563 36.6028 4.60257 36.5806 4.70618 36.5362C4.8098 36.4888 4.88678 36.4178 4.9371 36.323C4.98743 36.2283 5.00076 36.1069 4.97707 35.9589C4.95931 35.8405 4.91638 35.7176 4.84829 35.5903C4.7802 35.46 4.68694 35.3505 4.56852 35.2617C4.45306 35.1729 4.31244 35.1285 4.14665 35.1285C3.89501 35.1285 3.67445 35.241 3.48497 35.466C3.2955 35.691 3.15192 35.9796 3.05422 36.3319L2.53465 36.2342C2.58498 35.9559 2.66195 35.691 2.76557 35.4393C2.86919 35.1877 2.99501 34.9641 3.14304 34.7688C3.29106 34.5704 3.45981 34.415 3.64928 34.3025C3.84172 34.187 4.05191 34.1293 4.27987 34.1293ZM3.14748 36.8781L2.34814 36.9847C2.2386 36.9995 2.14979 37.0202 2.08169 37.0469C2.01656 37.0735 1.96771 37.1164 1.93515 37.1756C1.90554 37.2349 1.89074 37.3237 1.89074 37.4421V40.2131L1.23795 40.5817H1.08696V37.5353C1.08696 37.2097 1.13729 36.9432 1.23795 36.736C1.33861 36.5288 1.48515 36.3674 1.67758 36.252C1.87002 36.1365 2.09798 36.0551 2.36146 36.0077L2.90323 35.9145L3.14748 36.8781ZM6.79334 37.6375C6.74302 37.6375 6.70453 37.6227 6.67788 37.5931C6.6542 37.5605 6.64532 37.5191 6.65124 37.4687L6.73561 36.7005C6.75042 36.588 6.80667 36.5317 6.90436 36.5317C6.95469 36.5317 6.9917 36.548 7.01538 36.5806C7.03907 36.6102 7.04943 36.6502 7.04647 36.7005L6.96209 37.4687C6.95025 37.5812 6.894 37.6375 6.79334 37.6375ZM8.85386 31.0962V35.6258C8.85386 35.8804 8.89382 36.0729 8.97376 36.2031C9.05665 36.3334 9.18247 36.4207 9.35122 36.4651C9.52293 36.5095 9.74201 36.5317 10.0085 36.5317L9.89744 37.6375C9.61323 37.6375 9.35566 37.602 9.12474 37.5309C8.89679 37.4569 8.70879 37.3311 8.56077 37.1534C8.41274 36.9758 8.31653 36.7301 8.27212 36.4163L8.46751 36.4074C8.41718 36.7419 8.32245 36.998 8.1833 37.1756C8.04416 37.3503 7.85913 37.4717 7.62821 37.5398C7.39729 37.6049 7.12196 37.6375 6.80223 37.6375L6.9088 36.5317C7.17525 36.5317 7.39285 36.511 7.5616 36.4696C7.73331 36.4252 7.85913 36.3408 7.93906 36.2164C8.01899 36.0921 8.05896 35.9071 8.05896 35.6613V31.3138L8.85386 31.0962ZM9.89744 37.6375C9.84711 37.6375 9.8101 37.6227 9.78642 37.5931C9.76273 37.5605 9.75237 37.5191 9.75533 37.4687L9.83971 36.7005C9.85451 36.588 9.91076 36.5317 10.0085 36.5317C10.0588 36.5317 10.0958 36.548 10.1195 36.5806C10.1461 36.6102 10.1565 36.6502 10.1506 36.7005L10.0662 37.4687C10.0543 37.5812 9.99809 37.6375 9.89744 37.6375ZM6.9088 36.5317C6.95913 36.5317 6.99762 36.548 7.02426 36.5806C7.05091 36.6102 7.05979 36.6502 7.05091 36.7005L6.96653 37.4687C6.95469 37.5812 6.89992 37.6375 6.80223 37.6375C6.7519 37.6375 6.71489 37.6227 6.69121 37.5931C6.66456 37.5605 6.65272 37.5191 6.65568 37.4687L6.74005 36.7005C6.7519 36.588 6.80815 36.5317 6.9088 36.5317ZM12.553 37.0557C12.3221 37.2067 12.0867 37.3252 11.8469 37.411C11.6071 37.4939 11.3392 37.5531 11.0432 37.5886C10.7471 37.6212 10.3978 37.6375 9.99513 37.6375H9.90188L10.0085 36.5317H10.1062C10.42 36.5317 10.6879 36.5273 10.9099 36.5184C11.1349 36.5066 11.3348 36.4844 11.5094 36.4518C11.6871 36.4192 11.8603 36.3748 12.029 36.3186L12.4109 36.2475C12.6418 36.1202 12.8491 35.9959 13.0326 35.8745C13.2191 35.7531 13.3657 35.6391 13.4723 35.5326C13.5818 35.423 13.6366 35.3224 13.6366 35.2306C13.6366 35.1003 13.5477 35.0071 13.3701 34.9508C13.1925 34.8916 12.9616 34.862 12.6774 34.862C12.3813 34.862 12.1193 34.8798 11.8913 34.9153C11.6634 34.9479 11.468 34.9878 11.3052 35.0352L11.3362 34.8887L12.664 36.2475C12.7499 36.3067 12.8727 36.3556 13.0326 36.3941C13.1954 36.4326 13.3834 36.4622 13.5966 36.4829C13.8097 36.5036 14.0362 36.5169 14.276 36.5229C14.5188 36.5288 14.7645 36.5317 15.0132 36.5317L14.9022 37.6375C14.4847 37.6375 14.1147 37.6138 13.792 37.5664C13.4693 37.5191 13.1836 37.4391 12.9349 37.3266C12.6862 37.2141 12.4642 37.0602 12.2688 36.8648L12.0246 36.6561L10.6746 35.1951L10.7767 34.1648C11.0728 34.076 11.3821 34.0079 11.7048 33.9605C12.0275 33.9102 12.368 33.885 12.7262 33.885C13.2206 33.885 13.5981 33.9709 13.8586 34.1426C14.1221 34.3143 14.2538 34.563 14.2538 34.8887C14.2538 35.0989 14.1991 35.3046 14.0895 35.5059C13.9829 35.7072 13.8305 35.9056 13.6321 36.101C13.4367 36.2964 13.2014 36.4918 12.926 36.6872L12.553 37.0557ZM10.0085 36.5317C10.0588 36.5317 10.0973 36.548 10.1239 36.5806C10.1506 36.6102 10.1594 36.6502 10.1506 36.7005L10.0662 37.4687C10.0543 37.5812 9.99957 37.6375 9.90188 37.6375C9.85155 37.6375 9.81454 37.6227 9.79086 37.5931C9.76421 37.5605 9.75237 37.5191 9.75533 37.4687L9.83971 36.7005C9.85155 36.588 9.9078 36.5317 10.0085 36.5317ZM14.9022 37.6375C14.8518 37.6375 14.8134 37.6227 14.7867 37.5931C14.7601 37.5605 14.7512 37.5191 14.7601 37.4687L14.8444 36.7005C14.8563 36.588 14.9111 36.5317 15.0088 36.5317C15.0591 36.5317 15.0961 36.548 15.1198 36.5806C15.1464 36.6102 15.1583 36.6502 15.1553 36.7005L15.0665 37.4687C15.0576 37.5812 15.0028 37.6375 14.9022 37.6375ZM16.5097 33.655L15.8969 34.2722L15.2841 33.655L15.8969 33.0421L16.5097 33.655ZM17.8198 33.655L17.2025 34.2722L16.5941 33.655L17.2025 33.0421L17.8198 33.655ZM16.8694 34.5822V35.6391C16.8694 35.8819 16.9138 36.0684 17.0027 36.1987C17.0915 36.326 17.2262 36.4133 17.4068 36.4607C17.5874 36.5081 17.8124 36.5317 18.0818 36.5317L17.9752 37.6375C17.7058 37.6375 17.4571 37.602 17.2291 37.5309C17.0012 37.4569 16.8117 37.3355 16.6607 37.1668C16.5127 36.9951 16.418 36.7582 16.3765 36.4562L16.5897 36.474C16.5482 36.7789 16.4594 37.0158 16.3232 37.1845C16.19 37.3533 16.005 37.4717 15.7681 37.5398C15.5342 37.6049 15.2456 37.6375 14.9022 37.6375L15.0088 36.5317C15.2841 36.5317 15.5106 36.5081 15.6882 36.4607C15.8688 36.4133 16.002 36.326 16.0879 36.1987C16.1767 36.0684 16.2211 35.8819 16.2211 35.6391V34.5822H16.8694ZM17.9752 37.6375C17.9249 37.6375 17.8864 37.6227 17.8597 37.5931C17.836 37.5605 17.8257 37.5191 17.8286 37.4687L17.9175 36.7005C17.9323 36.588 17.987 36.5317 18.0818 36.5317C18.1321 36.5317 18.1706 36.548 18.1972 36.5806C18.2239 36.6102 18.2342 36.6502 18.2283 36.7005L18.1395 37.4687C18.1306 37.5812 18.0758 37.6375 17.9752 37.6375ZM14.9022 37.6375C14.8518 37.6375 14.8148 37.6227 14.7912 37.5931C14.7645 37.5605 14.7527 37.5191 14.7556 37.4687L14.84 36.7005C14.8578 36.588 14.914 36.5317 15.0088 36.5317C15.0591 36.5317 15.0976 36.548 15.1242 36.5806C15.1509 36.6102 15.1597 36.6502 15.1509 36.7005L15.0665 37.4687C15.0576 37.5812 15.0028 37.6375 14.9022 37.6375ZM20.0268 31.0962V35.3727C20.0268 35.8197 19.9706 36.212 19.8581 36.5495C19.7456 36.887 19.5694 37.1401 19.3296 37.3089C19.1757 37.4243 18.9877 37.5087 18.7656 37.562C18.5436 37.6123 18.2801 37.6375 17.9752 37.6375L18.0818 36.5317C18.3601 36.5317 18.5836 36.5081 18.7523 36.4607C18.9211 36.4133 19.0424 36.326 19.1165 36.1987C19.1934 36.0714 19.2319 35.8878 19.2319 35.648V31.3138L20.0268 31.0962ZM17.9752 37.6375C17.9249 37.6375 17.8879 37.6227 17.8642 37.5931C17.8375 37.5605 17.8257 37.5191 17.8286 37.4687L17.913 36.7005C17.9308 36.588 17.987 36.5317 18.0818 36.5317C18.1321 36.5317 18.1706 36.548 18.1972 36.5806C18.2239 36.6102 18.2328 36.6502 18.2239 36.7005L18.1395 37.4687C18.1306 37.5812 18.0758 37.6375 17.9752 37.6375ZM21.4967 31.3138L22.2872 31.0962V37.0824L21.7276 37.6375H21.4967V31.3138ZM27.6028 36.5806C27.6028 37.0365 27.5465 37.4465 27.434 37.8107C27.3215 38.1748 27.1661 38.4857 26.9677 38.7432C26.7723 39.0038 26.5473 39.2036 26.2927 39.3427C26.0381 39.4819 25.7702 39.5515 25.489 39.5515C25.3913 39.5515 25.2802 39.5307 25.1559 39.4893C25.0316 39.4478 24.9057 39.3931 24.7784 39.325C24.6482 39.2598 24.5253 39.1888 24.4099 39.1118V38.4191C24.5283 38.4487 24.6482 38.4709 24.7696 38.4857C24.8909 38.5005 25.0271 38.5079 25.1781 38.5079C25.5748 38.5079 25.9064 38.425 26.1728 38.2592C26.4393 38.0934 26.6391 37.8862 26.7723 37.6375C26.9085 37.3888 26.9766 37.1431 26.9766 36.9003C26.9766 36.7434 26.9514 36.5673 26.9011 36.3719C26.8538 36.1765 26.7857 35.953 26.6968 35.7013C26.608 35.4467 26.5015 35.1566 26.3771 34.8309L27.1898 34.4801C27.3112 34.8146 27.4103 35.1655 27.4873 35.5326C27.5643 35.8967 27.6028 36.246 27.6028 36.5806ZM30.7335 37.6375C30.2953 37.6375 29.9416 37.5798 29.6722 37.4643C29.4028 37.3459 29.2059 37.1594 29.0815 36.9048C28.9572 36.6502 28.895 36.3156 28.895 35.9011V31.3138L29.6855 31.0962V35.6036C29.6855 35.8345 29.7151 36.0181 29.7743 36.1543C29.8335 36.2905 29.946 36.3882 30.1118 36.4474C30.2776 36.5036 30.5218 36.5317 30.8445 36.5317L30.7335 37.6375ZM30.7335 37.6375C30.6832 37.6375 30.6462 37.6227 30.6225 37.5931C30.5988 37.5605 30.5884 37.5191 30.5914 37.4687L30.6758 36.7005C30.6906 36.588 30.7468 36.5317 30.8445 36.5317C30.8948 36.5317 30.9319 36.548 30.9555 36.5806C30.9822 36.6102 30.9925 36.6502 30.9866 36.7005L30.9022 37.4687C30.8904 37.5812 30.8342 37.6375 30.7335 37.6375ZM36.9683 35.1285V35.8079C36.9683 36.0003 36.9994 36.1484 37.0616 36.252C37.1238 36.3556 37.2407 36.4281 37.4124 36.4696C37.5841 36.511 37.8358 36.5317 38.1673 36.5317L38.0608 37.6375C37.6167 37.6375 37.2747 37.5738 37.0349 37.4465C36.7951 37.3192 36.6456 37.1002 36.5864 36.7893L36.7729 36.7849C36.7108 37.078 36.5775 37.2941 36.3733 37.4332C36.172 37.5694 35.9114 37.6375 35.5917 37.6375C35.2305 37.6375 34.9552 37.5635 34.7657 37.4154C34.5762 37.2645 34.4489 37.0454 34.3838 36.7582L34.6414 36.7538C34.5792 37.035 34.4415 37.2526 34.2284 37.4066C34.0182 37.5605 33.7325 37.6375 33.3713 37.6375C32.9864 37.6375 32.6934 37.5635 32.492 37.4154C32.2937 37.2674 32.1708 37.0602 32.1235 36.7937L32.31 36.8026C32.233 37.078 32.082 37.2867 31.857 37.4288C31.635 37.5679 31.262 37.6375 30.7379 37.6375L30.8445 36.5317C31.1554 36.5317 31.3981 36.5095 31.5728 36.4651C31.7475 36.4207 31.8689 36.3452 31.9369 36.2386C32.008 36.1321 32.0435 35.9885 32.0435 35.8079V35.1285H32.6741V35.8079C32.6741 36.0743 32.7333 36.2623 32.8517 36.3719C32.9731 36.4784 33.167 36.5317 33.4335 36.5317C33.7029 36.5317 33.8953 36.4784 34.0108 36.3719C34.1292 36.2623 34.1884 36.0743 34.1884 35.8079V35.1285H34.8234V35.8079C34.8234 36.0743 34.8753 36.2623 34.9789 36.3719C35.0854 36.4784 35.2882 36.5317 35.5873 36.5317C35.8626 36.5317 36.055 36.4784 36.1646 36.3719C36.2771 36.2623 36.3333 36.0743 36.3333 35.8079V35.1285H36.9683ZM38.0608 37.6375C38.0104 37.6375 37.9719 37.6227 37.9453 37.5931C37.9216 37.5605 37.9127 37.5191 37.9187 37.4687L38.003 36.7005C38.0149 36.588 38.0696 36.5317 38.1673 36.5317C38.2177 36.5317 38.2547 36.548 38.2784 36.5806C38.305 36.6102 38.3168 36.6502 38.3139 36.7005L38.2295 37.4687C38.2177 37.5812 38.1614 37.6375 38.0608 37.6375ZM30.8445 36.5317C30.8948 36.5317 30.9333 36.548 30.96 36.5806C30.9866 36.6102 30.9955 36.6502 30.9866 36.7005L30.9022 37.4687C30.8904 37.5812 30.8356 37.6375 30.7379 37.6375C30.6876 37.6375 30.6506 37.6227 30.6269 37.5931C30.6003 37.5605 30.5884 37.5191 30.5914 37.4687L30.6758 36.7005C30.6876 36.588 30.7439 36.5317 30.8445 36.5317ZM38.0652 37.6375L38.1718 36.5317C38.4145 36.5317 38.6099 36.5007 38.758 36.4385C38.906 36.3733 39.0288 36.2786 39.1265 36.1543C39.2272 36.027 39.3293 35.8686 39.433 35.6791L39.6594 35.2395C39.84 34.9049 40.0413 34.637 40.2634 34.4357C40.4854 34.2314 40.7504 34.1293 41.0583 34.1293C41.3247 34.1293 41.5586 34.2166 41.7599 34.3913C41.9642 34.566 42.1241 34.791 42.2395 35.0663C42.355 35.3387 42.4127 35.6273 42.4127 35.9322C42.4127 36.2786 42.3565 36.5791 42.244 36.8337C42.1315 37.0883 41.9701 37.2867 41.7599 37.4288C41.5497 37.5679 41.2996 37.6375 41.0094 37.6375C40.7489 37.6375 40.5002 37.596 40.2634 37.5131C40.0295 37.4303 39.8208 37.3222 39.6372 37.189C39.4566 37.0528 39.316 36.9048 39.2154 36.7449L39.5795 35.8567C39.695 35.987 39.8371 36.1084 40.0058 36.2209C40.1746 36.3304 40.3581 36.4192 40.5565 36.4873C40.7578 36.5525 40.9621 36.585 41.1693 36.585C41.3795 36.585 41.5423 36.5436 41.6578 36.4607C41.7732 36.3778 41.831 36.2401 41.831 36.0477C41.831 35.9085 41.794 35.7694 41.7199 35.6303C41.6459 35.4882 41.5408 35.3697 41.4047 35.275C41.2714 35.1773 41.116 35.1285 40.9384 35.1285C40.6749 35.1285 40.4514 35.2247 40.2678 35.4171C40.0872 35.6095 39.917 35.876 39.7571 36.2164L39.615 36.5095C39.4966 36.7641 39.3767 36.9758 39.2553 37.1446C39.1339 37.3104 38.98 37.4347 38.7935 37.5176C38.6099 37.5975 38.3672 37.6375 38.0652 37.6375ZM38.1718 36.5317C38.2221 36.5317 38.2606 36.548 38.2872 36.5806C38.3139 36.6102 38.3228 36.6502 38.3139 36.7005L38.2295 37.4687C38.2177 37.5812 38.1629 37.6375 38.0652 37.6375C38.0149 37.6375 37.9779 37.6227 37.9542 37.5931C37.9275 37.5605 37.9157 37.5191 37.9187 37.4687L38.003 36.7005C38.0149 36.588 38.0711 36.5317 38.1718 36.5317Z" fill="#409CFF"/>
<defs>
<clipPath id="clip0_318_24867">
<rect width="22.7367" height="22.7367" fill="white" transform="translate(12.043 0.839355)"/>
</clipPath>
</defs>
</svg>
