<svg width="33" height="33" viewBox="0 0 33 33" fill="none" xmlns="http://www.w3.org/2000/svg">
<path d="M30.9375 24.75V27.3281C30.9375 28.7502 29.7804 29.9062 28.3594 29.9062H6.1875C3.91256 29.9062 2.0625 28.0562 2.0625 25.7812C2.0625 25.7812 2.0625 8.26547 2.0625 8.25C2.0625 5.97506 3.91256 4.125 6.1875 4.125H25.2656C26.1205 4.125 26.8125 4.818 26.8125 5.67188C26.8125 6.52575 26.1205 7.21875 25.2656 7.21875H6.1875C5.61928 7.21875 5.15625 7.68075 5.15625 8.25C5.15625 8.81925 5.61928 9.28125 6.1875 9.28125H28.3594C29.7804 9.28125 30.9375 10.4373 30.9375 11.8594V14.4375H25.7812C22.9381 14.4375 20.625 16.7506 20.625 19.5938C20.625 22.4369 22.9381 24.75 25.7812 24.75H30.9375Z" fill="url(#paint0_linear_318_24735)"/>
<path d="M30.9375 16.5V22.6875H25.7812C24.0725 22.6875 22.6875 21.3025 22.6875 19.5938C22.6875 17.885 24.0725 16.5 25.7812 16.5H30.9375Z" fill="url(#paint1_linear_318_24735)"/>
<defs>
<linearGradient id="paint0_linear_318_24735" x1="53" y1="-4" x2="-29.5" y2="61.5" gradientUnits="userSpaceOnUse">
<stop offset="0.178151" stop-color="#2B8BF3"/>
<stop offset="0.843696" stop-color="#9BFFA5" stop-opacity="0.84"/>
</linearGradient>
<linearGradient id="paint1_linear_318_24735" x1="26.8125" y1="16.5" x2="26.8125" y2="22.6875" gradientUnits="userSpaceOnUse">
<stop stop-color="#2B8BF3"/>
<stop offset="1" stop-color="#9BFFA5" stop-opacity="0.84"/>
</linearGradient>
</defs>
</svg>
